<?xml version="1.0" standalone="no"?>
<!DOCTYPE svg PUBLIC "-//W3C//DTD SVG 20010904//EN"
 "http://www.w3.org/TR/2001/REC-SVG-20010904/DTD/svg10.dtd">
<svg version="1.0" xmlns="http://www.w3.org/2000/svg"
 width="70.000000pt" height="70.000000pt" viewBox="0 0 70.000000 70.000000"
 preserveAspectRatio="xMidYMid meet">
<metadata>
Created by potrace 1.14, written by Peter Selinger 2001-2017
</metadata>
<g transform="translate(0.000000,70.000000) scale(0.100000,-0.100000)"
fill="#000000" stroke="none">
<path d="M410 447 c0 -281 -6 -307 -77 -307 -34 0 -58 18 -68 50 -6 18 -15 20
-81 20 l-74 0 0 -32 c0 -50 39 -109 90 -138 37 -20 59 -25 125 -25 86 0 137
19 182 67 49 52 53 81 53 343 l0 245 -75 0 -75 0 0 -223z"/>
</g>
</svg>
