<svg width="108" height="23" viewBox="0 0 108 23" fill="none" xmlns="http://www.w3.org/2000/svg">
<path d="M14.52 0.459998V15.76C14.52 20.32 12.15 22.54 7.83 22.54C0.66 22.54 0.66 17.98 0.66 13.87H4.86C4.86 17.26 5.1 18.91 7.5 18.91C9.84 18.91 10.02 17.41 10.02 15.76V0.459998H14.52ZM31.5499 10.24V18.88C31.5499 20.77 31.9699 21.19 32.4799 21.37V22H27.9499C27.7099 21.25 27.6499 21.01 27.5599 20.11C26.5999 21.1 25.2499 22.42 22.3999 22.42C19.9999 22.42 17.5399 21.07 17.5399 17.77C17.5399 14.65 19.5199 13.06 22.1899 12.67L25.9699 12.1C26.6299 12.01 27.4399 11.74 27.4399 10.84C27.4399 9.07 25.7599 8.98 24.6799 8.98C22.5799 8.98 22.2199 10.27 22.0999 11.2H18.0499C18.5299 6.31 21.9199 5.62 25.1899 5.62C27.4399 5.62 31.5499 6.31 31.5499 10.24ZM27.4399 16.27V14.23C27.0199 14.56 26.3299 14.83 24.5899 15.1C23.0299 15.37 21.7399 15.76 21.7399 17.5C21.7399 18.97 22.8799 19.42 23.6899 19.42C25.5499 19.42 27.4399 18.22 27.4399 16.27ZM49.1904 6.04L43.4304 22H39.0204L33.2904 6.04H37.9704L41.2704 17.8H41.3304L44.7204 6.04H49.1904ZM60.9103 17.32H65.2303C64.1203 21.16 60.9403 22.42 58.2103 22.42C53.7103 22.42 50.2603 20.26 50.2603 13.69C50.2603 11.77 50.9203 5.62 57.9103 5.62C61.0603 5.62 65.4103 7.12 65.4103 14.41V15.16H54.4603C54.5803 16.36 54.8203 19.06 58.2103 19.06C59.3803 19.06 60.5803 18.46 60.9103 17.32ZM54.5803 12.43H61.0903C60.8503 9.85 59.2003 9.07 57.8503 9.07C55.8703 9.07 54.8203 10.33 54.5803 12.43ZM72.5102 0.459998V22H68.3102V0.459998H72.5102ZM76.6598 6.04H80.8598V22H76.6598V6.04ZM80.8598 0.249999V4.15H76.6598V0.249999H80.8598ZM99.3195 10.96V22H95.1195V12.31C95.1195 11.14 95.0595 9.16 92.3895 9.16C90.5295 9.16 89.0895 10.42 89.0895 12.85V22H84.8895V6.04H88.9095V8.38H88.9695C89.5395 7.42 90.7395 5.62 93.7695 5.62C96.8895 5.62 99.3195 7.45 99.3195 10.96ZM107.699 17.62V22H103.199V17.62H107.699Z" fill="black"/>
</svg>
