<?xml version="1.0" encoding="utf-8"?>
<!-- Generator: Adobe Illustrator 16.0.0, SVG Export Plug-In . SVG Version: 6.00 Build 0)  -->
<!DOCTYPE svg PUBLIC "-//W3C//DTD SVG 1.1//EN" "http://www.w3.org/Graphics/SVG/1.1/DTD/svg11.dtd">
<svg version="1.1" id="Layer_1" xmlns="http://www.w3.org/2000/svg" xmlns:xlink="http://www.w3.org/1999/xlink" x="0px" y="0px"
	 width="100px" height="100px" viewBox="0 0 100 100" enable-background="new 0 0 100 100" xml:space="preserve">
<g display="none">
	<path display="inline" fill-rule="evenodd" clip-rule="evenodd" fill="#373737" d="M52.94,8.81c1.989,0.64,3.409,2.052,4.839,3.485
		c10.328,10.356,20.684,20.687,31.005,31.048c0.709,0.711,1.415,1.54,1.79,2.451c2.106,5.105-1.04,10.303-6.508,10.524
		c-0.417,0.017-0.836,0.002-1.387,0.002c0,0.34,0,0.641,0,0.942c0,7.706,0.014,15.413-0.006,23.119
		c-0.011,4.215-2.689,7.619-6.719,8.565c-0.708,0.166-1.453,0.226-2.181,0.23c-4.089,0.021-8.179,0.013-12.268,0.009
		c-1.775-0.001-2.719-0.937-2.72-2.715c-0.005-6.055,0-12.109-0.003-18.165c-0.002-2.799-1.589-4.397-4.374-4.404
		c-2.254-0.004-4.509-0.006-6.763,0.001c-2.738,0.008-4.331,1.61-4.333,4.363c-0.006,6.002-0.002,12.005-0.002,18.007
		c-0.002,2.045-0.872,2.913-2.92,2.913c-3.983,0-7.967,0.005-11.952-0.001c-5.278-0.008-9.011-3.726-9.018-9.002
		c-0.011-7.602-0.003-15.203-0.003-22.805c0-0.311,0-0.622,0-0.973c-0.897-0.076-1.763-0.072-2.595-0.234
		c-2.805-0.547-4.726-2.209-5.635-4.901c-0.9-2.667-0.349-5.114,1.47-7.265c0.237-0.28,0.503-0.535,0.762-0.794
		c10.25-10.25,20.504-20.495,30.744-30.755c1.479-1.483,2.918-2.999,4.999-3.646C50.424,8.81,51.682,8.81,52.94,8.81z
		 M63.504,84.468c0.398,0,0.683,0,0.968,0c2.909,0,5.825-0.109,8.728,0.03c2.942,0.142,4.838-1.767,4.8-4.75
		c-0.11-8.412-0.039-16.827-0.038-25.24c0-2.033,0.878-2.9,2.931-2.902c1.022-0.001,2.046,0.016,3.067-0.007
		c1.096-0.024,1.897-0.557,2.366-1.54c0.488-1.021,0.328-1.99-0.369-2.867c-0.212-0.266-0.464-0.5-0.704-0.74
		C74.65,35.849,64.048,25.247,53.445,14.645c-1.72-1.719-3.06-1.724-4.769-0.016c-9.491,9.49-18.98,18.98-28.471,28.47
		c-1.315,1.315-2.646,2.617-3.939,3.955c-0.804,0.832-1,1.844-0.543,2.908c0.453,1.057,1.3,1.619,2.464,1.638
		c0.995,0.017,1.991,0.005,2.988,0.006c2.098,0.002,2.963,0.862,2.963,2.952c0.001,8.572-0.003,17.144,0.003,25.715
		c0.003,2.534,1.654,4.188,4.177,4.194c3.173,0.008,6.345,0.003,9.517,0c0.228,0,0.456-0.026,0.759-0.044c0-0.353,0-0.661,0-0.969
		c0-5.138-0.021-10.275,0.007-15.413c0.027-4.865,3.379-8.513,8.231-8.796c2.795-0.163,5.606-0.039,8.411-0.023
		c0.468,0.003,0.941,0.078,1.399,0.18c4.121,0.925,6.833,4.308,6.854,8.615c0.026,5.138,0.007,10.276,0.007,15.414
		C63.504,83.738,63.504,84.048,63.504,84.468z"/>
</g>
<g display="none">
	<path display="inline" fill-rule="evenodd" clip-rule="evenodd" fill="#373737" d="M7.534,76.74
		c0.613-2.398,2.056-4.375,3.304-6.445c11.214-18.618,22.443-37.226,33.66-55.844c1.651-2.745,3.991-4.32,7.239-4.267
		c2.735,0.044,4.951,1.249,6.411,3.558c2.219,3.508,4.326,7.088,6.47,10.644c9.806,16.257,19.615,32.512,29.392,48.787
		c0.666,1.108,1.064,2.374,1.589,3.567c0,0.802,0,1.605,0,2.408c-0.216,0.641-0.374,1.31-0.659,1.919
		c-1.529,3.276-4.145,4.811-7.738,4.809c-23.757-0.008-47.513-0.004-71.27-0.004c-0.229,0-0.459-0.001-0.688-0.01
		c-2.361-0.087-4.416-0.954-5.809-2.854c-0.834-1.139-1.281-2.563-1.901-3.86C7.534,78.345,7.534,77.542,7.534,76.74z M51.475,80.16
		c11.808,0,23.615,0,35.424-0.003c0.399,0,0.809,0.004,1.197-0.076c1.389-0.287,2.109-1.662,1.564-2.97
		c-0.141-0.341-0.348-0.657-0.539-0.975c-6.177-10.252-12.356-20.502-18.536-30.752c-5.603-9.294-11.199-18.591-16.824-27.873
		c-0.327-0.542-0.792-1.092-1.331-1.392c-1.114-0.619-2.191-0.079-3.067,1.375C37.771,36.719,26.18,55.943,14.59,75.169
		c-0.369,0.612-0.768,1.214-1.071,1.858c-0.638,1.36,0.116,2.798,1.59,3.071c0.362,0.067,0.741,0.059,1.112,0.059
		C27.972,80.161,39.723,80.16,51.475,80.16z"/>
	<path display="inline" fill-rule="evenodd" clip-rule="evenodd" fill="#373737" d="M55.017,47.815
		c-0.114,3.55-0.247,7.1-0.331,10.65c-0.027,1.153-0.54,1.866-1.589,2.289c-1.04,0.418-2.075,0.396-3.105,0.053
		c-0.962-0.32-1.492-1.005-1.528-2.051c-0.24-7.127-0.497-14.253-0.729-21.381c-0.061-1.825,0.754-2.954,2.37-3.428
		c1.93-0.566,4.065,0.007,4.828,1.432c0.319,0.595,0.451,1.362,0.441,2.049c-0.05,3.464-0.175,6.928-0.272,10.391
		C55.073,47.818,55.045,47.817,55.017,47.815z"/>
	<path display="inline" fill-rule="evenodd" clip-rule="evenodd" fill="#373737" d="M47.578,68.816
		c0.012-2.277,1.857-4.104,4.104-4.063c2.178,0.04,4.019,1.931,4.003,4.114c-0.016,2.168-1.917,4.08-4.056,4.075
		C49.387,72.939,47.566,71.084,47.578,68.816z"/>
</g>
<g display="none">
	<path display="inline" fill-rule="evenodd" clip-rule="evenodd" fill="#373737" d="M12.769,90.222
		c-1.086-0.546-1.418-1.427-1.402-2.625c0.053-4.213,0.039-8.427,0.008-12.641c-0.008-0.939,0.289-1.647,0.951-2.308
		C20.5,64.5,28.656,56.331,36.826,48.177c0.344-0.342,0.468-0.614,0.294-1.112c-5.267-15.1,3.67-31.138,19.337-34.703
		c1.211-0.275,2.452-0.42,3.679-0.626c1.328,0,2.657,0,3.985,0c1.4,0.247,2.817,0.422,4.198,0.752
		c10.594,2.533,18.55,11.307,20.058,22.079c1.946,13.908-7.323,27.017-21.037,29.707c-4.759,0.934-9.45,0.639-14.031-1.012
		c-0.44-0.159-0.72-0.098-1.057,0.248c-1.749,1.791-3.548,3.533-5.291,5.33c-0.652,0.672-1.373,0.997-2.31,0.965
		c-1.171-0.04-2.343-0.009-3.63-0.009c0,1.123,0.003,2.186-0.001,3.25c-0.001,0.382,0.009,0.769-0.032,1.147
		c-0.101,0.922-0.762,1.551-1.726,1.652c-0.329,0.034-0.662,0.028-0.994,0.033c-0.324,0.005-0.649,0-1.074,0
		c0,0.619,0.01,1.147-0.003,1.675c-0.031,1.411-0.726,2.12-2.13,2.137c-1.476,0.018-2.952,0.004-4.514,0.004
		c0,1.476-0.03,2.873,0.009,4.268c0.024,0.881-0.257,1.574-0.898,2.177c-0.911,0.857-1.766,1.776-2.668,2.643
		c-0.526,0.505-1.1,0.96-1.651,1.439C21.147,90.222,16.958,90.222,12.769,90.222z M37.156,71.937c0-1.262-0.006-2.507,0.002-3.751
		c0.01-1.514,0.736-2.249,2.263-2.267c1.302-0.016,2.606-0.04,3.906,0.01c0.744,0.029,1.282-0.18,1.809-0.729
		c1.716-1.787,3.53-3.481,5.228-5.284c0.983-1.046,1.959-1.223,3.279-0.669c3.959,1.66,8.09,2.073,12.314,1.353
		c12.436-2.121,20.711-14.026,18.432-26.481C81.351,17.521,61.604,9.982,48.285,20.334C40.173,26.64,37.3,37.367,41.17,46.899
		c0.575,1.417,0.475,1.92-0.609,3.004c-1.479,1.482-2.961,2.962-4.442,4.443c-6.772,6.774-13.546,13.547-20.313,20.327
		c-0.224,0.224-0.519,0.51-0.536,0.782c-0.064,1.006-0.025,2.018-0.025,3.028c0.112,0.084,0.225,0.169,0.337,0.254
		c0.146-0.266,0.24-0.585,0.447-0.792c6.619-6.639,13.249-13.267,19.879-19.895c0.217-0.216,0.427-0.442,0.666-0.631
		c0.683-0.539,1.626-0.502,2.247,0.067c0.649,0.595,0.753,1.564,0.221,2.292c-0.193,0.266-0.438,0.497-0.674,0.731
		c-7.512,7.515-15.025,15.029-22.535,22.546c-0.213,0.212-0.532,0.453-0.553,0.699c-0.068,0.851-0.026,1.71-0.026,2.614
		c1.897,0,3.683,0.005,5.469-0.002c1.069-0.004,2.266,0.265,3.176-0.124c0.939-0.402,1.628-1.431,2.373-2.233
		c0.23-0.248,0.394-0.654,0.402-0.992c0.042-1.583,0.017-3.167,0.02-4.751c0.003-1.769,0.676-2.435,2.46-2.437
		c1.37-0.001,2.741,0,4.114,0c0.204-1.138-0.258-2.317,0.626-3.227C34.803,71.669,36.016,72.148,37.156,71.937z"/>
	<path display="inline" fill-rule="evenodd" clip-rule="evenodd" fill="#373737" d="M62.957,30.1
		c0.093-4.032,3.391-7.234,7.368-7.155c3.994,0.079,7.212,3.429,7.114,7.407c-0.097,3.961-3.469,7.2-7.368,7.077
		C66.051,37.302,62.866,34.021,62.957,30.1z M70.231,33.546c1.856-0.016,3.358-1.531,3.347-3.374
		c-0.014-1.838-1.537-3.354-3.376-3.359c-1.878-0.006-3.386,1.532-3.361,3.428C66.865,32.109,68.355,33.563,70.231,33.546z"/>
</g>
<path fill-rule="evenodd" clip-rule="evenodd" fill="#373737" d="M45.239,7.982c3.173,0,6.347,0,9.52,0
	c0.1,0.045,0.192,0.107,0.297,0.134c2.346,0.608,3.7,2.136,4.064,4.504c0.293,1.917,0.517,3.847,0.722,5.775
	c0.061,0.571,0.279,0.845,0.821,1.041c1.179,0.427,2.349,0.895,3.479,1.438c0.511,0.247,0.819,0.172,1.228-0.155
	c1.475-1.179,2.97-2.329,4.463-3.481c2.378-1.833,5.121-1.669,7.261,0.447c1.75,1.731,3.489,3.473,5.223,5.223
	c2.114,2.136,2.282,4.854,0.444,7.259c-1.18,1.542-2.395,3.057-3.553,4.614c-0.165,0.221-0.218,0.658-0.12,0.917
	c0.48,1.277,1.004,2.539,1.576,3.776c0.129,0.279,0.493,0.581,0.789,0.627c1.483,0.232,2.98,0.379,4.473,0.566
	c1.548,0.192,3.097,0.358,4.337,1.491c0.927,0.847,1.402,1.923,1.756,3.082c0,3.174,0,6.347,0,9.521
	c-0.052,0.124-0.114,0.245-0.15,0.375c-0.661,2.368-2.248,3.681-4.649,4.018c-1.867,0.262-3.739,0.494-5.614,0.691
	c-0.567,0.06-0.851,0.272-1.046,0.816c-0.413,1.155-0.878,2.296-1.399,3.406c-0.24,0.51-0.247,0.851,0.121,1.305
	c1.205,1.486,2.373,3.003,3.53,4.527c1.771,2.33,1.603,5.06-0.441,7.134c-1.746,1.773-3.507,3.532-5.278,5.281
	c-2.146,2.12-4.868,2.28-7.257,0.441c-1.516-1.168-3.029-2.339-4.529-3.528c-0.358-0.284-0.64-0.353-1.093-0.143
	c-1.187,0.553-2.401,1.048-3.627,1.511c-0.438,0.166-0.666,0.371-0.719,0.85c-0.156,1.467-0.338,2.932-0.533,4.395
	c-0.18,1.377-0.269,2.774-1.133,3.971c-0.865,1.197-2.074,1.814-3.44,2.208c-3.173,0-6.347,0-9.52,0
	c-0.099-0.045-0.192-0.107-0.296-0.134c-2.339-0.614-3.705-2.132-4.066-4.504c-0.292-1.918-0.515-3.847-0.721-5.776
	c-0.063-0.568-0.275-0.852-0.819-1.047c-1.153-0.416-2.295-0.877-3.405-1.398c-0.511-0.24-0.853-0.243-1.305,0.124
	c-1.508,1.221-3.043,2.413-4.594,3.578c-2.297,1.723-5.027,1.528-7.07-0.489c-1.77-1.75-3.529-3.511-5.279-5.28
	c-2.118-2.141-2.279-4.845-0.435-7.255c1.146-1.498,2.298-2.993,3.478-4.465c0.331-0.413,0.391-0.726,0.149-1.232
	c-0.54-1.131-1.015-2.298-1.437-3.479c-0.197-0.552-0.493-0.75-1.053-0.811c-1.873-0.2-3.744-0.447-5.614-0.685
	c-1.348-0.17-2.592-0.656-3.411-1.752c-0.588-0.789-0.929-1.761-1.38-2.651c0-3.229,0-6.456,0-9.684
	c0.054-0.088,0.127-0.17,0.155-0.266c0.694-2.354,2.288-3.649,4.691-3.971c1.867-0.25,3.738-0.487,5.612-0.688
	c0.538-0.057,0.796-0.272,0.982-0.779c0.432-1.177,0.901-2.343,1.435-3.478c0.23-0.488,0.234-0.804-0.112-1.234
	c-1.185-1.466-2.33-2.965-3.478-4.461c-1.871-2.442-1.707-5.146,0.443-7.314c1.713-1.728,3.435-3.447,5.161-5.161
	c2.176-2.161,4.87-2.336,7.312-0.471c1.519,1.163,3.026,2.34,4.526,3.526c0.327,0.258,0.588,0.364,1.019,0.167
	c1.24-0.564,2.521-1.038,3.762-1.602c0.263-0.12,0.563-0.448,0.604-0.719c0.228-1.429,0.368-2.871,0.56-4.306
	c0.188-1.401,0.231-2.837,1.101-4.063C42.621,9.033,43.83,8.361,45.239,7.982z M49.996,88.53c1.148,0,2.297,0.004,3.447-0.001
	c1.49-0.007,2.085-0.529,2.271-2.003c0.293-2.305,0.589-4.609,0.859-6.916c0.113-0.976,0.593-1.543,1.534-1.897
	c1.938-0.728,3.855-1.521,5.738-2.382c0.944-0.432,1.695-0.363,2.493,0.274c1.796,1.435,3.62,2.83,5.436,4.238
	c1.224,0.951,1.918,0.915,2.995-0.159c1.627-1.622,3.253-3.248,4.874-4.874c1.112-1.116,1.153-1.79,0.172-3.06
	c-1.422-1.839-2.843-3.679-4.284-5.501c-0.595-0.754-0.617-1.479-0.223-2.356c0.852-1.887,1.664-3.798,2.385-5.738
	c0.363-0.975,0.94-1.466,1.949-1.582c2.336-0.269,4.668-0.564,6.998-0.869c1.319-0.173,1.879-0.81,1.885-2.131
	c0.012-2.38,0.012-4.76,0-7.14c-0.006-1.334-0.543-1.951-1.88-2.128c-2.329-0.309-4.662-0.603-6.997-0.873
	c-1.01-0.116-1.59-0.604-1.951-1.58c-0.709-1.916-1.496-3.808-2.35-5.665c-0.429-0.935-0.411-1.687,0.234-2.495
	c1.435-1.794,2.83-3.619,4.235-5.436c0.989-1.279,0.952-1.937-0.165-3.057c-1.623-1.626-3.247-3.251-4.875-4.873
	c-1.081-1.078-1.766-1.114-2.995-0.161c-1.837,1.424-3.679,2.842-5.501,4.285c-0.777,0.616-1.521,0.641-2.427,0.224
	c-1.832-0.842-3.688-1.646-5.585-2.325c-1.079-0.386-1.595-0.995-1.715-2.111c-0.247-2.31-0.552-4.613-0.861-6.916
	c-0.176-1.313-0.81-1.843-2.159-1.849c-2.353-0.008-4.705-0.008-7.058,0c-1.389,0.005-1.999,0.536-2.18,1.916
	c-0.303,2.304-0.602,4.608-0.86,6.917c-0.117,1.044-0.61,1.642-1.62,2.011c-1.893,0.693-3.764,1.46-5.59,2.311
	c-0.967,0.45-1.733,0.438-2.565-0.227c-1.837-1.469-3.704-2.899-5.569-4.332c-1.098-0.845-1.819-0.791-2.802,0.189
	c-1.666,1.66-3.329,3.325-4.987,4.993c-1.043,1.048-1.086,1.754-0.173,2.933c1.423,1.838,2.838,3.682,4.286,5.5
	c0.64,0.804,0.672,1.562,0.24,2.499c-0.844,1.83-1.639,3.69-2.322,5.586c-0.379,1.043-0.975,1.556-2.056,1.675
	c-2.281,0.251-4.558,0.555-6.835,0.845c-1.423,0.182-1.967,0.792-1.971,2.218c-0.008,2.325-0.008,4.65-0.001,6.975
	c0.003,1.437,0.535,2.046,1.958,2.229c2.304,0.297,4.607,0.593,6.916,0.858c1.009,0.116,1.594,0.598,1.953,1.577
	c0.696,1.892,1.455,3.768,2.312,5.592c0.465,0.995,0.451,1.779-0.24,2.637c-1.472,1.833-2.901,3.701-4.335,5.564
	c-0.81,1.053-0.752,1.791,0.193,2.74c1.66,1.667,3.323,3.33,4.99,4.99c1.078,1.074,1.773,1.117,2.997,0.171
	c1.86-1.438,3.717-2.882,5.566-4.334c0.727-0.569,1.447-0.591,2.29-0.213c1.865,0.835,3.74,1.664,5.661,2.356
	c1.113,0.402,1.604,1.052,1.721,2.198c0.234,2.284,0.545,4.559,0.853,6.834c0.179,1.314,0.813,1.836,2.16,1.847
	C47.644,88.537,48.82,88.529,49.996,88.53z"/>
<path fill-rule="evenodd" clip-rule="evenodd" fill="#373737" d="M50.507,67.505c-9.459,0.425-17.586-7.227-18.012-16.957
	c-0.418-9.524,7.221-17.639,16.994-18.054c9.486-0.404,17.565,7.202,18.013,16.954C67.937,58.955,60.303,67.065,50.507,67.505z
	 M63.987,49.994c-0.005-7.741-6.232-13.975-13.972-13.984C42.275,36,36.031,42.223,36.01,49.962
	c-0.019,7.77,6.248,14.043,14.014,14.028C57.762,63.974,63.99,57.73,63.987,49.994z"/>
</svg>
