<?xml version="1.0" encoding="utf-8"?>
<!-- Generator: Adobe Illustrator 16.0.0, SVG Export Plug-In . SVG Version: 6.00 Build 0)  -->
<!DOCTYPE svg PUBLIC "-//W3C//DTD SVG 1.1//EN" "http://www.w3.org/Graphics/SVG/1.1/DTD/svg11.dtd">
<svg version="1.1" id="Layer_1" xmlns="http://www.w3.org/2000/svg" xmlns:xlink="http://www.w3.org/1999/xlink" x="0px" y="0px"
	 width="100px" height="100px" viewBox="0 0 100 100" enable-background="new 0 0 100 100" xml:space="preserve">
<g display="none">
	<path display="inline" fill-rule="evenodd" clip-rule="evenodd" fill="#373737" d="M52.94,8.81c1.989,0.64,3.409,2.052,4.839,3.485
		c10.328,10.356,20.684,20.687,31.005,31.048c0.709,0.711,1.415,1.54,1.79,2.451c2.106,5.105-1.04,10.303-6.508,10.524
		c-0.417,0.017-0.836,0.002-1.387,0.002c0,0.34,0,0.641,0,0.942c0,7.706,0.014,15.413-0.006,23.119
		c-0.011,4.215-2.689,7.619-6.719,8.565c-0.708,0.166-1.453,0.226-2.181,0.23c-4.089,0.021-8.179,0.013-12.268,0.009
		c-1.775-0.001-2.719-0.937-2.72-2.715c-0.005-6.055,0-12.109-0.003-18.165c-0.002-2.799-1.589-4.397-4.374-4.404
		c-2.254-0.004-4.509-0.006-6.763,0.001c-2.738,0.008-4.331,1.61-4.333,4.363c-0.006,6.002-0.002,12.005-0.002,18.007
		c-0.002,2.045-0.872,2.913-2.92,2.913c-3.983,0-7.967,0.005-11.952-0.001c-5.278-0.008-9.011-3.726-9.018-9.002
		c-0.011-7.602-0.003-15.203-0.003-22.805c0-0.311,0-0.622,0-0.973c-0.897-0.076-1.763-0.072-2.595-0.234
		c-2.805-0.547-4.726-2.209-5.635-4.901c-0.9-2.667-0.349-5.114,1.47-7.265c0.237-0.28,0.503-0.535,0.762-0.794
		c10.25-10.25,20.504-20.495,30.744-30.755c1.479-1.483,2.918-2.999,4.999-3.646C50.424,8.81,51.682,8.81,52.94,8.81z
		 M63.504,84.468c0.398,0,0.683,0,0.968,0c2.909,0,5.825-0.109,8.728,0.03c2.942,0.142,4.838-1.767,4.8-4.75
		c-0.11-8.412-0.039-16.827-0.038-25.24c0-2.033,0.878-2.9,2.931-2.902c1.022-0.001,2.046,0.016,3.067-0.007
		c1.096-0.024,1.897-0.557,2.366-1.54c0.488-1.021,0.328-1.99-0.369-2.867c-0.212-0.266-0.464-0.5-0.704-0.74
		C74.65,35.849,64.048,25.247,53.445,14.645c-1.72-1.719-3.06-1.724-4.769-0.016c-9.491,9.49-18.98,18.98-28.471,28.47
		c-1.315,1.315-2.646,2.617-3.939,3.955c-0.804,0.832-1,1.844-0.543,2.908c0.453,1.057,1.3,1.619,2.464,1.638
		c0.995,0.017,1.991,0.005,2.988,0.006c2.098,0.002,2.963,0.862,2.963,2.952c0.001,8.572-0.003,17.144,0.003,25.715
		c0.003,2.534,1.654,4.188,4.177,4.194c3.173,0.008,6.345,0.003,9.517,0c0.228,0,0.456-0.026,0.759-0.044c0-0.353,0-0.661,0-0.969
		c0-5.138-0.021-10.275,0.007-15.413c0.027-4.865,3.379-8.513,8.231-8.796c2.795-0.163,5.606-0.039,8.411-0.023
		c0.468,0.003,0.941,0.078,1.399,0.18c4.121,0.925,6.833,4.308,6.854,8.615c0.026,5.138,0.007,10.276,0.007,15.414
		C63.504,83.738,63.504,84.048,63.504,84.468z"/>
</g>
<g display="none">
	<path display="inline" fill-rule="evenodd" clip-rule="evenodd" fill="#373737" d="M7.534,76.74
		c0.613-2.398,2.056-4.375,3.304-6.445c11.214-18.618,22.443-37.226,33.66-55.844c1.651-2.745,3.991-4.32,7.239-4.267
		c2.735,0.044,4.951,1.249,6.411,3.558c2.219,3.508,4.326,7.088,6.47,10.644c9.806,16.257,19.615,32.512,29.392,48.787
		c0.666,1.108,1.064,2.374,1.589,3.567c0,0.802,0,1.605,0,2.408c-0.216,0.641-0.374,1.31-0.659,1.919
		c-1.529,3.276-4.145,4.811-7.738,4.809c-23.757-0.008-47.513-0.004-71.27-0.004c-0.229,0-0.459-0.001-0.688-0.01
		c-2.361-0.087-4.416-0.954-5.809-2.854c-0.834-1.139-1.281-2.563-1.901-3.86C7.534,78.345,7.534,77.542,7.534,76.74z M51.475,80.16
		c11.808,0,23.615,0,35.424-0.003c0.399,0,0.809,0.004,1.197-0.076c1.389-0.287,2.109-1.662,1.564-2.97
		c-0.141-0.341-0.348-0.657-0.539-0.975c-6.177-10.252-12.356-20.502-18.536-30.752c-5.603-9.294-11.199-18.591-16.824-27.873
		c-0.327-0.542-0.792-1.092-1.331-1.392c-1.114-0.619-2.191-0.079-3.067,1.375C37.771,36.719,26.18,55.943,14.59,75.169
		c-0.369,0.612-0.768,1.214-1.071,1.858c-0.638,1.36,0.116,2.798,1.59,3.071c0.362,0.067,0.741,0.059,1.112,0.059
		C27.972,80.161,39.723,80.16,51.475,80.16z"/>
	<path display="inline" fill-rule="evenodd" clip-rule="evenodd" fill="#373737" d="M55.017,47.815
		c-0.114,3.55-0.247,7.1-0.331,10.65c-0.027,1.153-0.54,1.866-1.589,2.289c-1.04,0.418-2.075,0.396-3.105,0.053
		c-0.962-0.32-1.492-1.005-1.528-2.051c-0.24-7.127-0.497-14.253-0.729-21.381c-0.061-1.825,0.754-2.954,2.37-3.428
		c1.93-0.566,4.065,0.007,4.828,1.432c0.319,0.595,0.451,1.362,0.441,2.049c-0.05,3.464-0.175,6.928-0.272,10.391
		C55.073,47.818,55.045,47.817,55.017,47.815z"/>
	<path display="inline" fill-rule="evenodd" clip-rule="evenodd" fill="#373737" d="M47.578,68.816
		c0.012-2.277,1.857-4.104,4.104-4.063c2.178,0.04,4.019,1.931,4.003,4.114c-0.016,2.168-1.917,4.08-4.056,4.075
		C49.387,72.939,47.566,71.084,47.578,68.816z"/>
</g>
<g display="none">
	<path display="inline" fill-rule="evenodd" clip-rule="evenodd" fill="#373737" d="M12.769,90.222
		c-1.086-0.546-1.418-1.427-1.402-2.625c0.053-4.213,0.039-8.427,0.008-12.641c-0.008-0.939,0.289-1.647,0.951-2.308
		C20.5,64.5,28.656,56.331,36.826,48.177c0.344-0.342,0.468-0.614,0.294-1.112c-5.267-15.1,3.67-31.138,19.337-34.703
		c1.211-0.275,2.452-0.42,3.679-0.626c1.328,0,2.657,0,3.985,0c1.4,0.247,2.817,0.422,4.198,0.752
		c10.594,2.533,18.55,11.307,20.058,22.079c1.946,13.908-7.323,27.017-21.037,29.707c-4.759,0.934-9.45,0.639-14.031-1.012
		c-0.44-0.159-0.72-0.098-1.057,0.248c-1.749,1.791-3.548,3.533-5.291,5.33c-0.652,0.672-1.373,0.997-2.31,0.965
		c-1.171-0.04-2.343-0.009-3.63-0.009c0,1.123,0.003,2.186-0.001,3.25c-0.001,0.382,0.009,0.769-0.032,1.147
		c-0.101,0.922-0.762,1.551-1.726,1.652c-0.329,0.034-0.662,0.028-0.994,0.033c-0.324,0.005-0.649,0-1.074,0
		c0,0.619,0.01,1.147-0.003,1.675c-0.031,1.411-0.726,2.12-2.13,2.137c-1.476,0.018-2.952,0.004-4.514,0.004
		c0,1.476-0.03,2.873,0.009,4.268c0.024,0.881-0.257,1.574-0.898,2.177c-0.911,0.857-1.766,1.776-2.668,2.643
		c-0.526,0.505-1.1,0.96-1.651,1.439C21.147,90.222,16.958,90.222,12.769,90.222z M37.156,71.937c0-1.262-0.006-2.507,0.002-3.751
		c0.01-1.514,0.736-2.249,2.263-2.267c1.302-0.016,2.606-0.04,3.906,0.01c0.744,0.029,1.282-0.18,1.809-0.729
		c1.716-1.787,3.53-3.481,5.228-5.284c0.983-1.046,1.959-1.223,3.279-0.669c3.959,1.66,8.09,2.073,12.314,1.353
		c12.436-2.121,20.711-14.026,18.432-26.481C81.351,17.521,61.604,9.982,48.285,20.334C40.173,26.64,37.3,37.367,41.17,46.899
		c0.575,1.417,0.475,1.92-0.609,3.004c-1.479,1.482-2.961,2.962-4.442,4.443c-6.772,6.774-13.546,13.547-20.313,20.327
		c-0.224,0.224-0.519,0.51-0.536,0.782c-0.064,1.006-0.025,2.018-0.025,3.028c0.112,0.084,0.225,0.169,0.337,0.254
		c0.146-0.266,0.24-0.585,0.447-0.792c6.619-6.639,13.249-13.267,19.879-19.895c0.217-0.216,0.427-0.442,0.666-0.631
		c0.683-0.539,1.626-0.502,2.247,0.067c0.649,0.595,0.753,1.564,0.221,2.292c-0.193,0.266-0.438,0.497-0.674,0.731
		c-7.512,7.515-15.025,15.029-22.535,22.546c-0.213,0.212-0.532,0.453-0.553,0.699c-0.068,0.851-0.026,1.71-0.026,2.614
		c1.897,0,3.683,0.005,5.469-0.002c1.069-0.004,2.266,0.265,3.176-0.124c0.939-0.402,1.628-1.431,2.373-2.233
		c0.23-0.248,0.394-0.654,0.402-0.992c0.042-1.583,0.017-3.167,0.02-4.751c0.003-1.769,0.676-2.435,2.46-2.437
		c1.37-0.001,2.741,0,4.114,0c0.204-1.138-0.258-2.317,0.626-3.227C34.803,71.669,36.016,72.148,37.156,71.937z"/>
	<path display="inline" fill-rule="evenodd" clip-rule="evenodd" fill="#373737" d="M62.957,30.1
		c0.093-4.032,3.391-7.234,7.368-7.155c3.994,0.079,7.212,3.429,7.114,7.407c-0.097,3.961-3.469,7.2-7.368,7.077
		C66.051,37.302,62.866,34.021,62.957,30.1z M70.231,33.546c1.856-0.016,3.358-1.531,3.347-3.374
		c-0.014-1.838-1.537-3.354-3.376-3.359c-1.878-0.006-3.386,1.532-3.361,3.428C66.865,32.109,68.355,33.563,70.231,33.546z"/>
</g>
<g display="none">
	<path display="inline" fill-rule="evenodd" clip-rule="evenodd" fill="#373737" d="M45.239,7.982c3.173,0,6.347,0,9.52,0
		c0.1,0.045,0.192,0.107,0.297,0.134c2.346,0.608,3.7,2.136,4.064,4.504c0.293,1.917,0.517,3.847,0.722,5.775
		c0.061,0.571,0.279,0.845,0.821,1.041c1.179,0.427,2.349,0.895,3.479,1.438c0.511,0.247,0.819,0.172,1.228-0.155
		c1.475-1.179,2.97-2.329,4.463-3.481c2.378-1.833,5.121-1.669,7.261,0.447c1.75,1.731,3.489,3.473,5.223,5.223
		c2.114,2.136,2.282,4.854,0.444,7.259c-1.18,1.542-2.395,3.057-3.553,4.614c-0.165,0.221-0.218,0.658-0.12,0.917
		c0.48,1.277,1.004,2.539,1.576,3.776c0.129,0.279,0.493,0.581,0.789,0.627c1.483,0.232,2.98,0.379,4.473,0.566
		c1.548,0.192,3.097,0.358,4.337,1.491c0.927,0.847,1.402,1.923,1.756,3.082c0,3.174,0,6.347,0,9.521
		c-0.052,0.124-0.114,0.245-0.15,0.375c-0.661,2.368-2.248,3.681-4.649,4.018c-1.867,0.262-3.739,0.494-5.614,0.691
		c-0.567,0.06-0.851,0.272-1.046,0.816c-0.413,1.155-0.878,2.296-1.399,3.406c-0.24,0.51-0.247,0.851,0.121,1.305
		c1.205,1.486,2.373,3.003,3.53,4.527c1.771,2.33,1.603,5.06-0.441,7.134c-1.746,1.773-3.507,3.532-5.278,5.281
		c-2.146,2.12-4.868,2.28-7.257,0.441c-1.516-1.168-3.029-2.339-4.529-3.528c-0.358-0.284-0.64-0.353-1.093-0.143
		c-1.187,0.553-2.401,1.048-3.627,1.511c-0.438,0.166-0.666,0.371-0.719,0.85c-0.156,1.467-0.338,2.932-0.533,4.395
		c-0.18,1.377-0.269,2.774-1.133,3.971c-0.865,1.197-2.074,1.814-3.44,2.208c-3.173,0-6.347,0-9.52,0
		c-0.099-0.045-0.192-0.107-0.296-0.134c-2.339-0.614-3.705-2.132-4.066-4.504c-0.292-1.918-0.515-3.847-0.721-5.776
		c-0.063-0.568-0.275-0.852-0.819-1.047c-1.153-0.416-2.295-0.877-3.405-1.398c-0.511-0.24-0.853-0.243-1.305,0.124
		c-1.508,1.221-3.043,2.413-4.594,3.578c-2.297,1.723-5.027,1.528-7.07-0.489c-1.77-1.75-3.529-3.511-5.279-5.28
		c-2.118-2.141-2.279-4.845-0.435-7.255c1.146-1.498,2.298-2.993,3.478-4.465c0.331-0.413,0.391-0.726,0.149-1.232
		c-0.54-1.131-1.015-2.298-1.437-3.479c-0.197-0.552-0.493-0.75-1.053-0.811c-1.873-0.2-3.744-0.447-5.614-0.685
		c-1.348-0.17-2.592-0.656-3.411-1.752c-0.588-0.789-0.929-1.761-1.38-2.651c0-3.229,0-6.456,0-9.684
		c0.054-0.088,0.127-0.17,0.155-0.266c0.694-2.354,2.288-3.649,4.691-3.971c1.867-0.25,3.738-0.487,5.612-0.688
		c0.538-0.057,0.796-0.272,0.982-0.779c0.432-1.177,0.901-2.343,1.435-3.478c0.23-0.488,0.234-0.804-0.112-1.234
		c-1.185-1.466-2.33-2.965-3.478-4.461c-1.871-2.442-1.707-5.146,0.443-7.314c1.713-1.728,3.435-3.447,5.161-5.161
		c2.176-2.161,4.87-2.336,7.312-0.471c1.519,1.163,3.026,2.34,4.526,3.526c0.327,0.258,0.588,0.364,1.019,0.167
		c1.24-0.564,2.521-1.038,3.762-1.602c0.263-0.12,0.563-0.448,0.604-0.719c0.228-1.429,0.368-2.871,0.56-4.306
		c0.188-1.401,0.231-2.837,1.101-4.063C42.621,9.033,43.83,8.361,45.239,7.982z M49.996,88.53c1.148,0,2.297,0.004,3.447-0.001
		c1.49-0.007,2.085-0.529,2.271-2.003c0.293-2.305,0.589-4.609,0.859-6.916c0.113-0.976,0.593-1.543,1.534-1.897
		c1.938-0.728,3.855-1.521,5.738-2.382c0.944-0.432,1.695-0.363,2.493,0.274c1.796,1.435,3.62,2.83,5.436,4.238
		c1.224,0.951,1.918,0.915,2.995-0.159c1.627-1.622,3.253-3.248,4.874-4.874c1.112-1.116,1.153-1.79,0.172-3.06
		c-1.422-1.839-2.843-3.679-4.284-5.501c-0.595-0.754-0.617-1.479-0.223-2.356c0.852-1.887,1.664-3.798,2.385-5.738
		c0.363-0.975,0.94-1.466,1.949-1.582c2.336-0.269,4.668-0.564,6.998-0.869c1.319-0.173,1.879-0.81,1.885-2.131
		c0.012-2.38,0.012-4.76,0-7.14c-0.006-1.334-0.543-1.951-1.88-2.128c-2.329-0.309-4.662-0.603-6.997-0.873
		c-1.01-0.116-1.59-0.604-1.951-1.58c-0.709-1.916-1.496-3.808-2.35-5.665c-0.429-0.935-0.411-1.687,0.234-2.495
		c1.435-1.794,2.83-3.619,4.235-5.436c0.989-1.279,0.952-1.937-0.165-3.057c-1.623-1.626-3.247-3.251-4.875-4.873
		c-1.081-1.078-1.766-1.114-2.995-0.161c-1.837,1.424-3.679,2.842-5.501,4.285c-0.777,0.616-1.521,0.641-2.427,0.224
		c-1.832-0.842-3.688-1.646-5.585-2.325c-1.079-0.386-1.595-0.995-1.715-2.111c-0.247-2.31-0.552-4.613-0.861-6.916
		c-0.176-1.313-0.81-1.843-2.159-1.849c-2.353-0.008-4.705-0.008-7.058,0c-1.389,0.005-1.999,0.536-2.18,1.916
		c-0.303,2.304-0.602,4.608-0.86,6.917c-0.117,1.044-0.61,1.642-1.62,2.011c-1.893,0.693-3.764,1.46-5.59,2.311
		c-0.967,0.45-1.733,0.438-2.565-0.227c-1.837-1.469-3.704-2.899-5.569-4.332c-1.098-0.845-1.819-0.791-2.802,0.189
		c-1.666,1.66-3.329,3.325-4.987,4.993c-1.043,1.048-1.086,1.754-0.173,2.933c1.423,1.838,2.838,3.682,4.286,5.5
		c0.64,0.804,0.672,1.562,0.24,2.499c-0.844,1.83-1.639,3.69-2.322,5.586c-0.379,1.043-0.975,1.556-2.056,1.675
		c-2.281,0.251-4.558,0.555-6.835,0.845c-1.423,0.182-1.967,0.792-1.971,2.218c-0.008,2.325-0.008,4.65-0.001,6.975
		c0.003,1.437,0.535,2.046,1.958,2.229c2.304,0.297,4.607,0.593,6.916,0.858c1.009,0.116,1.594,0.598,1.953,1.577
		c0.696,1.892,1.455,3.768,2.312,5.592c0.465,0.995,0.451,1.779-0.24,2.637c-1.472,1.833-2.901,3.701-4.335,5.564
		c-0.81,1.053-0.752,1.791,0.193,2.74c1.66,1.667,3.323,3.33,4.99,4.99c1.078,1.074,1.773,1.117,2.997,0.171
		c1.86-1.438,3.717-2.882,5.566-4.334c0.727-0.569,1.447-0.591,2.29-0.213c1.865,0.835,3.74,1.664,5.661,2.356
		c1.113,0.402,1.604,1.052,1.721,2.198c0.234,2.284,0.545,4.559,0.853,6.834c0.179,1.314,0.813,1.836,2.16,1.847
		C47.644,88.537,48.82,88.529,49.996,88.53z"/>
	<path display="inline" fill-rule="evenodd" clip-rule="evenodd" fill="#373737" d="M50.507,67.505
		c-9.459,0.425-17.586-7.227-18.012-16.957c-0.418-9.524,7.221-17.639,16.994-18.054c9.486-0.404,17.565,7.202,18.013,16.954
		C67.937,58.955,60.303,67.065,50.507,67.505z M63.987,49.994c-0.005-7.741-6.232-13.975-13.972-13.984
		C42.275,36,36.031,42.223,36.01,49.962c-0.019,7.77,6.248,14.043,14.014,14.028C57.762,63.974,63.99,57.73,63.987,49.994z"/>
</g>
<g display="none">
	<path display="inline" fill="#373737" stroke="#373737" stroke-width="0.2" d="M9.049,88.608c0-18.05,14.358-32.821,32.204-33.435
		h2.05c18.053,0.41,32.823,15.178,32.823,33.435c0,1.23,0.82,2.051,2.049,2.051c1.231,0,2.053-0.821,2.053-2.051
		c0-17.025-11.487-31.589-27.077-36.102c7.59-3.898,12.718-11.898,12.718-21.129c0-13.128-10.666-23.795-23.794-23.795
		S18.278,18.25,18.278,31.377c0,9.23,5.334,17.231,13.129,21.333C16.022,57.429,4.946,71.788,4.946,88.608
		c0,1.23,0.819,2.051,2.05,2.051C8.228,90.659,9.049,89.634,9.049,88.608z M22.381,31.377c0-10.872,8.821-19.692,19.693-19.692
		c10.871,0,19.691,8.821,19.691,19.692c0,10.461-8.205,18.872-18.463,19.693h-2.05C30.792,50.454,22.381,41.839,22.381,31.377z"/>
	<path display="inline" fill="#373737" stroke="#373737" stroke-width="0.2" d="M74.279,50.043c5.537-3.282,9.026-9.23,9.026-16
		c0-10.257-8.411-18.667-18.668-18.667c-1.229,0-2.051,0.82-2.051,2.051s0.821,2.051,2.051,2.051
		c7.999,0,14.565,6.564,14.565,14.564c0,7.384-5.539,13.743-13.129,14.564c-1.026,0.204-1.846,1.025-1.846,2.052
		c0,1.025,0.819,1.846,1.846,2.05c13.332,0.821,23.59,11.898,23.59,25.232c0,1.231,0.821,2.05,2.05,2.05
		c1.231,0,2.053-0.819,2.053-2.05C94.177,65.019,85.972,54.147,74.279,50.043z"/>
</g>
<path display="none" fill="#373737" d="M48.337,55.004V4.983c0-0.912,0.747-1.65,1.663-1.65s1.663,0.738,1.663,1.65v50.021
	c0,0.911-0.747,1.65-1.663,1.65S48.337,55.915,48.337,55.004z M31.27,19.514c0.46,0.788,0.187,1.8-0.606,2.256
	c-5.87,3.368-10.764,8.229-14.165,14.05c-3.381,5.802-5.167,12.435-5.167,19.184c0,21.155,17.345,38.363,38.669,38.363
	c21.323,0,38.673-17.213,38.673-38.363c0-6.75-1.79-13.382-5.177-19.184c-3.391-5.821-8.29-10.68-14.159-14.05
	c-0.798-0.458-1.071-1.468-0.606-2.256c0.46-0.789,1.477-1.058,2.27-0.602c6.375,3.657,11.694,8.932,15.377,15.253
	C90.059,40.471,92,47.676,92,55.004c0,22.968-18.84,41.663-42,41.663c-23.155,0-42-18.694-42-41.663
	c0-7.328,1.945-14.533,5.619-20.838c3.691-6.323,9.006-11.596,15.376-15.253C29.793,18.457,30.809,18.726,31.27,19.514z"/>
<g>
	<path fill-rule="evenodd" clip-rule="evenodd" fill="#373737" d="M93.369,21.247c-0.165,1.456-0.353,2.91-0.489,4.368
		c-0.404,4.279-0.768,8.563-1.188,12.841c-0.273,2.782-3.112,4.105-5.398,2.493c-4.879-3.438-9.729-6.914-14.573-10.398
		c-1.601-1.151-1.942-3.186-0.873-4.728c1.088-1.566,3.146-1.918,4.8-0.8c0.749,0.506,1.476,1.047,2.212,1.573
		c0.735,0.524,1.472,1.047,2.31,1.498c-0.133-0.227-0.25-0.465-0.401-0.679C73.4,18.39,64.76,13.067,53.779,11.789
		c-14.564-1.696-28.835,5.938-35.781,18.987c-0.531,0.998-1.104,1.913-2.231,2.317c-1.295,0.465-2.716,0.117-3.651-0.897
		c-0.975-1.057-1.189-2.521-0.511-3.862c1.578-3.119,3.507-6.009,5.81-8.635C24.522,11.597,33.41,6.745,44.077,5.164
		c1.028-0.153,2.065-0.261,3.099-0.39c1.812,0,3.624,0,5.435,0c1.425,0.185,2.859,0.313,4.272,0.564
		c12.179,2.164,21.71,8.429,28.704,18.602c0.137,0.198,0.288,0.386,0.557,0.745c0.156-1.701,0.299-3.206,0.433-4.712
		c0.196-2.198,2.164-3.64,4.261-3.104c1.328,0.34,2.037,1.322,2.532,2.511C93.369,20.002,93.369,20.624,93.369,21.247z"/>
	<path fill-rule="evenodd" clip-rule="evenodd" fill="#373737" d="M6.417,75.252c0.165-1.456,0.353-2.91,0.489-4.369
		c0.404-4.279,0.766-8.562,1.188-12.839c0.274-2.784,3.104-4.106,5.396-2.494c4.879,3.435,9.728,6.911,14.571,10.396
		c1.631,1.174,1.953,3.243,0.828,4.794c-1.103,1.518-3.13,1.85-4.748,0.736c-1.488-1.025-2.946-2.095-4.62-3.289
		c0.206,0.393,0.282,0.588,0.399,0.756c6.389,9.129,15.084,14.549,26.17,15.764c14.752,1.616,28.73-5.939,35.735-19.055
		c0.474-0.887,0.976-1.717,1.954-2.144c1.336-0.582,2.817-0.311,3.828,0.729c1.021,1.051,1.352,2.609,0.558,3.911
		c-1.587,2.601-3.098,5.29-5.009,7.643c-7.097,8.733-16.298,13.887-27.44,15.54c-1.088,0.162-2.184,0.265-3.275,0.395
		c-1.756,0-3.51,0-5.265,0c-1.005-0.123-2.013-0.226-3.015-0.373c-11.364-1.664-20.644-6.989-27.853-15.919
		c-0.896-1.111-1.705-2.292-2.637-3.552c-0.051,0.307-0.092,0.488-0.108,0.672c-0.123,1.352-0.229,2.704-0.362,4.054
		c-0.199,2.018-1.904,3.356-3.915,3.077c-1.526-0.211-2.313-1.262-2.869-2.565C6.417,76.498,6.417,75.876,6.417,75.252z"/>
</g>
<g display="none">
	<path display="inline" fill-rule="evenodd" clip-rule="evenodd" fill="#373737" d="M76.015,7.314
		c1.071,0.434,2.242,0.715,3.192,1.334c2.225,1.452,3.3,3.621,3.306,6.28c0.015,6.029,0.005,12.059,0.005,18.088
		c0,17.283,0.002,34.565-0.002,51.849c-0.001,4.076-2.533,7.092-6.489,7.738c-0.463,0.076-0.94,0.079-1.412,0.079
		c-16.421,0.004-32.843,0.005-49.264,0.001c-4.643-0.001-7.858-3.215-7.859-7.859c-0.005-18.2,0.001-36.399-0.012-54.599
		c-0.001-0.985,0.321-1.765,1.011-2.453c6.489-6.478,12.968-12.967,19.463-19.439c0.4-0.399,0.916-0.683,1.379-1.019
		C51.56,7.314,63.787,7.314,76.015,7.314z M22.491,32.323c0,0.375,0,0.647,0,0.919c0,17.145-0.001,34.289,0,51.434
		c0.001,2.062,0.94,3.005,2.997,3.005c16.338,0.001,32.678,0.001,49.017,0c2.067,0,3.011-0.937,3.011-2.99
		c0-23.119,0-46.238,0-69.357c0-2.078-0.929-3.019-2.98-3.019c-10.365-0.001-20.729,0-31.094,0c-0.295,0-0.59,0-0.941,0
		c0,0.404,0,0.706,0,1.007c0,3.751,0.026,7.503-0.02,11.253c-0.011,0.902-0.145,1.84-0.426,2.693
		c-0.994,3.024-3.803,5.026-7.03,5.047C30.887,32.344,26.749,32.323,22.491,32.323z M37.487,16.328
		c-3.646,3.644-7.366,7.362-10.998,10.993c2.711,0,5.622,0.018,8.532-0.008c1.306-0.012,2.421-0.99,2.446-2.258
		C37.527,22.068,37.487,19.08,37.487,16.328z"/>
	<path display="inline" fill-rule="evenodd" clip-rule="evenodd" fill="#373737" d="M49.997,42.663
		c4.942,0,9.884-0.008,14.825,0.003c2.028,0.005,3.279,1.869,2.417,3.588c-0.498,0.995-1.349,1.415-2.444,1.412
		c-3.859-0.006-7.719-0.002-11.578-0.002c-5.996,0-11.993,0.005-17.99-0.003c-2.003-0.003-3.283-1.77-2.517-3.48
		c0.482-1.075,1.375-1.526,2.545-1.523C40.169,42.668,45.083,42.663,49.997,42.663z"/>
	<path display="inline" fill-rule="evenodd" clip-rule="evenodd" fill="#373737" d="M49.998,52.667
		c4.942,0,9.884-0.007,14.825,0.004c2.028,0.004,3.278,1.87,2.416,3.589c-0.499,0.995-1.35,1.413-2.446,1.411
		c-3.914-0.006-7.829-0.002-11.743-0.002c-5.941,0-11.883,0.005-17.824-0.003c-2.002-0.003-3.283-1.771-2.515-3.481
		c0.483-1.076,1.375-1.525,2.545-1.522C40.17,52.673,45.085,52.667,49.998,52.667z"/>
	<path display="inline" fill-rule="evenodd" clip-rule="evenodd" fill="#373737" d="M49.996,62.671
		c4.941,0,9.884-0.007,14.824,0.004c2.029,0.004,3.28,1.868,2.42,3.587c-0.498,0.995-1.348,1.415-2.445,1.414
		c-3.803-0.006-7.606-0.002-11.41-0.002c-6.052,0-12.104,0.005-18.156-0.003c-2.004-0.003-3.285-1.768-2.52-3.479
		c0.483-1.076,1.374-1.527,2.545-1.524C40.168,62.677,45.082,62.671,49.996,62.671z"/>
	<path display="inline" fill-rule="evenodd" clip-rule="evenodd" fill="#373737" d="M54.912,77.678
		c-3.191,0-6.383,0.003-9.574-0.001c-1.693-0.002-2.827-1.004-2.834-2.49c-0.008-1.485,1.132-2.509,2.813-2.51
		c6.467-0.003,12.933-0.003,19.399,0c1.668,0.001,2.812,1.046,2.792,2.53c-0.019,1.452-1.146,2.466-2.771,2.469
		C61.462,77.682,58.188,77.678,54.912,77.678z"/>
</g>
<g display="none">
	<path display="inline" fill-rule="evenodd" clip-rule="evenodd" d="M80.963,75.795c-1.129-0.07-2.134-0.034-3.1-0.213
		c-2.35-0.436-4.066-2.366-4.086-4.736c-0.053-6.566-0.024-13.133-0.013-19.7c0.003-1.191,0.501-2.207,1.247-3.124
		c0.211-0.259,0.435-0.615,0.432-0.924c-0.035-3.129,0.088-6.279-0.221-9.384C74.186,27.291,65.533,18.3,55.113,16.617
		c-13.358-2.158-25.531,6.049-28.349,19.222c-0.441,2.067-0.401,4.242-0.535,6.37c-0.063,1.02-0.001,2.048-0.014,3.072
		c-0.016,1.254-0.032,2.417,0.916,3.518c0.56,0.649,0.765,1.782,0.773,2.701c0.063,6.325,0.058,12.651,0.023,18.977
		c-0.018,3.103-2.229,5.171-5.353,5.269c-2.898,0.09-5.503-0.575-7.283-2.985c-0.823-1.115-1.7-1.749-3.033-2.168
		c-3.1-0.973-5.113-3.954-5.17-7.23c-0.027-1.536-0.025-3.073-0.004-4.609c0.053-3.792,2.539-6.875,6.256-7.706
		c0.534-0.12,0.809-0.338,1.051-0.813c0.688-1.35,1.716-2.406,3.082-3.072c0.52-0.253,0.645-0.567,0.658-1.112
		c0.082-3.188-0.042-6.406,0.367-9.554c1.117-8.566,5.209-15.566,11.92-20.969c6.271-5.047,13.509-7.391,21.548-7.164
		c15.291,0.431,28.403,11.808,31.087,26.859c0.63,3.531,0.5,7.079,0.503,10.628c0.001,0.67,0.14,1.068,0.798,1.396
		c1.326,0.66,2.262,1.756,2.995,3.046c0.175,0.308,0.559,0.613,0.899,0.692c3.799,0.892,6.318,3.948,6.342,7.849
		c0.012,1.954,0.107,3.938-0.178,5.856c-0.484,3.254-3.04,5.661-6.264,6.34c-0.373,0.079-0.801,0.372-1.004,0.693
		c-0.777,1.218-1.738,2.215-2.975,2.972c-0.278,0.17-0.561,0.54-0.606,0.853c-0.667,4.532-3.992,7.464-8.626,7.494
		c-4.518,0.029-9.036,0.019-13.555-0.006c-0.698-0.004-1.076,0.139-1.428,0.849c-1.14,2.305-3.208,3.349-5.658,3.674
		c-2.778,0.369-5.282-0.284-7.267-2.355c-1.815-1.894-1.868-4.538-0.216-6.569c2.946-3.622,9.707-3.555,12.572,0.125
		c0.092,0.119,0.228,0.23,0.26,0.365c0.358,1.48,1.424,1.496,2.678,1.476c4.155-0.066,8.313-0.014,12.471-0.029
		c2.879-0.011,5.046-1.449,5.918-3.889C80.814,76.402,80.875,76.111,80.963,75.795z M81.057,46.228
		c0.02-4.118,0.176-8.171-0.777-12.177c-4.649-19.54-26.988-29.29-44.356-19.232c-9.253,5.358-14.29,13.547-15.21,24.193
		c-0.205,2.38-0.029,4.793-0.029,7.201c1.038,0,2.011,0,3.037,0c0-0.659-0.02-1.258,0.004-1.856
		c0.105-2.584-0.058-5.217,0.388-7.742c1.853-10.519,7.851-17.859,17.924-21.333c10.115-3.487,19.417-1.402,27.337,5.813
		c5.658,5.155,8.446,11.748,8.595,19.419c0.036,1.89,0.005,3.78,0.005,5.714C79.024,46.228,79.976,46.228,81.057,46.228z
		 M25.459,60.996c0-3.099,0.017-6.198-0.007-9.296c-0.014-1.85-1.094-2.885-2.94-2.896c-0.451-0.003-0.903-0.002-1.354,0
		c-3.004,0.013-5.095,1.988-5.125,4.988c-0.048,4.723-0.043,9.447,0,14.17c0.019,2.058,0.975,3.715,2.837,4.576
		c1.018,0.47,2.248,0.598,3.393,0.648c2.199,0.095,3.188-0.947,3.195-3.163C25.467,67.013,25.459,64.004,25.459,60.996z
		 M76.225,60.913c0,3.132-0.017,6.264,0.006,9.396c0.014,1.856,1.091,2.891,2.941,2.904c0.301,0.002,0.602,0.002,0.903,0
		c3.155-0.022,5.493-2.147,5.556-5.315c0.094-4.756,0.064-9.515,0.006-14.273c-0.023-1.947-0.941-3.499-2.757-4.315
		c-0.739-0.333-1.62-0.472-2.44-0.485c-3.605-0.06-4.216,0.571-4.216,4.139C76.224,55.613,76.224,58.263,76.225,60.913z
		 M53.078,85.155c1.451-0.028,2.8-0.38,3.908-1.37c1.307-1.167,1.309-2.751,0.04-3.938c-2.007-1.876-5.987-1.857-7.973,0.038
		c-1.239,1.183-1.238,2.702,0.031,3.862C50.211,84.773,51.586,85.132,53.078,85.155z M88.19,68.292
		c1.896-0.278,3.722-2.264,3.843-4.368c0.111-1.948,0.111-3.912-0.001-5.859c-0.122-2.112-2.022-4.171-3.842-4.334
		C88.19,58.567,88.19,63.399,88.19,68.292z M13.432,68.285c0-4.873,0-9.742,0-14.636c-2.079,0.588-3.682,2.407-3.788,4.455
		c-0.1,1.922-0.101,3.857-0.001,5.778C9.753,65.979,11.543,67.97,13.432,68.285z"/>
</g>
<g display="none">
	<path display="inline" fill-rule="evenodd" clip-rule="evenodd" fill="#373737" d="M7.191,47.115
		c0.316-1.324,0.51-2.692,0.969-3.964c2.389-6.612,7.106-10.542,13.988-11.885c1.623-0.317,1.604-0.292,1.915-1.93
		c2.055-10.833,8.367-18.025,18.726-21.631c1.909-0.664,4.003-0.799,6.01-1.177c0.278-0.052,0.557-0.097,0.834-0.144
		c0.912,0,1.826,0,2.738,0c1.736,0.282,3.506,0.431,5.203,0.869c8.454,2.183,14.539,7.281,18.279,15.163
		c1.178,2.484,1.928,5.107,2.216,7.848c0.071,0.668,0.367,0.877,1.019,0.938c7.521,0.714,14.096,6.82,15.385,14.248
		c0.105,0.613,0.227,1.225,0.341,1.836c0,1.027,0,2.053,0,3.081c-0.335,1.436-0.571,2.904-1.021,4.303
		c-2.385,7.425-10.27,12.668-18.095,11.961c0-0.857,0.002-1.786,0.002-2.676c1.11-0.076,2.222-0.073,3.309-0.24
		c5.704-0.876,9.797-3.975,11.933-9.311c2.191-5.477,1.304-10.662-2.432-15.233c-2.82-3.449-6.579-5.169-11.024-5.385
		c-1.432-0.07-1.853-0.47-1.991-1.895c-0.901-9.209-5.424-16.086-13.689-20.174c-7.888-3.903-15.848-3.479-23.45,0.984
		c-5.686,3.339-9.347,8.336-11.087,14.692c-0.396,1.446-0.557,2.962-0.748,4.457c-0.193,1.529-0.504,1.878-2.021,1.937
		c-7.753,0.297-14.232,6.432-14.499,14.585c-0.246,7.458,5.009,13.949,12.407,15.255c1.255,0.221,2.547,0.234,3.891,0.351
		c0,0.806,0,1.67,0,2.61c-2.342,0.138-4.66-0.075-6.869-0.877c-6.834-2.482-10.869-7.33-12.067-14.519
		c-0.037-0.221-0.112-0.436-0.169-0.654C7.191,49.396,7.191,48.255,7.191,47.115z"/>
	<path display="inline" fill-rule="evenodd" clip-rule="evenodd" fill="#373737" d="M7.188,80.958
		c0.41-1.725,1.199-3.188,2.818-4.08c2.926-1.611,6.5-0.35,7.754,2.737c0.084,0.208,0.166,0.417,0.258,0.649
		c3.702,0,7.378,0.012,11.054-0.008c0.963-0.005,1.39-0.512,1.391-1.549c0.006-4.191,0.003-8.381,0.003-12.571
		c0-0.278,0-0.556,0-0.88c0.92,0,1.764,0,2.738,0c0,0.262,0,0.533,0,0.804c0,4.162,0.006,8.324-0.002,12.485
		c-0.004,2.844-1.615,4.457-4.445,4.46c-3.364,0.004-6.729-0.01-10.092,0.021c-0.285,0.002-0.722,0.217-0.827,0.451
		c-1.097,2.417-3.147,3.801-5.458,3.613c-2.594-0.211-4.404-1.806-5.061-4.452c-0.027-0.107-0.086-0.208-0.131-0.311
		C7.188,81.872,7.188,81.416,7.188,80.958z M15.4,81.651c0.01-1.496-1.191-2.725-2.683-2.745c-1.525-0.021-2.79,1.233-2.775,2.75
		c0.014,1.479,1.259,2.712,2.737,2.711C14.165,84.367,15.393,83.142,15.4,81.651z"/>
	<path display="inline" fill-rule="evenodd" clip-rule="evenodd" fill="#373737" d="M94.811,82.328
		c-0.43,1.752-1.247,3.223-2.91,4.108c-2.864,1.526-6.407,0.285-7.617-2.733c-0.221-0.549-0.46-0.715-1.035-0.71
		c-3.334,0.029-6.67,0.021-10.005,0.012c-2.845-0.007-4.445-1.619-4.448-4.458c-0.003-2.765,0-5.53,0-8.295
		c0-0.278-0.001-3.476-0.001-3.803c0.913,0,1.756,0,2.736,0c0,0.281,0.004,3.499,0.004,3.797c0,2.793-0.005,5.587,0.002,8.381
		c0.002,1.218,0.426,1.638,1.647,1.64c3.59,0.005,7.181,0.001,10.801,0.001c0.479-1.374,1.225-2.515,2.475-3.287
		c3.012-1.859,6.996-0.379,8.046,3.005c0.101,0.325,0.204,0.648,0.306,0.973C94.811,81.416,94.811,81.872,94.811,82.328z
		 M86.597,81.555c-0.037,1.499,1.13,2.75,2.624,2.812c1.506,0.062,2.813-1.182,2.835-2.698c0.021-1.482-1.192-2.733-2.679-2.762
		C87.879,78.877,86.634,80.063,86.597,81.555z"/>
	<path display="inline" fill-rule="evenodd" clip-rule="evenodd" fill="#373737" d="M50.314,93.965
		c-1.723-0.412-3.182-1.207-4.071-2.821c-1.628-2.957-0.325-6.547,2.822-7.777c0.159-0.062,0.316-0.124,0.537-0.211
		c0-6.848,0-13.703,0-20.62c0.933,0,1.797,0,2.732,0c0,6.857,0,13.714,0,20.603c1.38,0.458,2.495,1.198,3.269,2.4
		c1.932,3,0.458,7.06-2.953,8.121c-0.322,0.101-0.645,0.204-0.967,0.306C51.227,93.965,50.771,93.965,50.314,93.965z M53.73,88.445
		c-0.016-1.489-1.246-2.698-2.74-2.694c-1.493,0.004-2.716,1.223-2.723,2.711c-0.007,1.518,1.271,2.78,2.783,2.748
		C52.536,91.179,53.746,89.93,53.73,88.445z"/>
	<path display="inline" fill-rule="evenodd" clip-rule="evenodd" fill="#373737" d="M49.66,53.971
		c-3.376-1.729-4.641-3.873-3.972-6.657c0.585-2.438,2.769-4.184,5.269-4.211c2.508-0.028,4.762,1.746,5.354,4.213
		c0.666,2.782-0.594,4.92-3.943,6.641c0,4.081,0,8.182,0,12.346c-0.905,0-1.77,0-2.707,0C49.66,62.177,49.66,58.056,49.66,53.971z
		 M53.73,48.589c0.01-1.486-1.207-2.728-2.693-2.749c-1.484-0.021-2.736,1.186-2.77,2.672c-0.035,1.521,1.211,2.791,2.735,2.789
		C52.493,51.298,53.721,50.079,53.73,48.589z"/>
	<path display="inline" fill-rule="evenodd" clip-rule="evenodd" fill="#373737" d="M71.53,55.513c0,3.652,0,7.298,0,11.005
		c-0.905,0-1.769,0-2.735,0c0-0.308,0-0.611,0-0.914c0-3.165-0.009-6.33,0.009-9.495c0.003-0.463-0.115-0.683-0.581-0.863
		c-2.53-0.983-3.921-3.5-3.424-6.095c0.497-2.596,2.787-4.491,5.4-4.466c2.594,0.024,4.852,1.92,5.313,4.464
		c0.486,2.674-0.912,5.133-3.49,6.139C71.865,55.348,71.716,55.427,71.53,55.513z M70.188,47.423
		c-1.486-0.017-2.73,1.193-2.756,2.68c-0.027,1.492,1.167,2.742,2.655,2.782c1.52,0.042,2.8-1.202,2.805-2.723
		C72.896,48.675,71.678,47.439,70.188,47.423z"/>
	<path display="inline" fill-rule="evenodd" clip-rule="evenodd" fill="#373737" d="M33.205,63.96c-0.967,0-1.78,0-2.728,0
		c0-1.033-0.013-3.556-0.013-4.57c0-1.084-0.025-2.167,0.011-3.25c0.017-0.504-0.149-0.717-0.631-0.917
		c-2.115-0.872-3.331-2.494-3.445-4.773c-0.112-2.27,0.887-4.025,2.915-5.116c2.764-1.485,6.152-0.312,7.495,2.57
		c1.283,2.755-0.004,6.111-2.854,7.26c-0.624,0.251-0.779,0.548-0.768,1.174C33.229,58.354,33.205,61.88,33.205,63.96z
		 M31.862,52.886c1.487-0.015,2.706-1.247,2.704-2.734c-0.001-1.521-1.277-2.767-2.795-2.729c-1.482,0.037-2.695,1.299-2.668,2.776
		C29.131,51.685,30.379,52.9,31.862,52.886z"/>
</g>
<rect x="26.141" y="63.96" display="none" width="50.928" height="2.555"/>
</svg>
